<?xml version="1.0" encoding="UTF-8" standalone="no"?>
<svg
   width="77"
   height="75"
   viewBox="0 0 77 75"
   fill="none"
   version="1.1"
   id="svg246"
   sodipodi:docname="cert-manager-webhook-dd.svg"
   inkscape:version="1.2.1 (9c6d41e410, 2022-07-14)"
   inkscape:export-filename="cert-manager-webhook-dd.png"
   inkscape:export-xdpi="319.57474"
   inkscape:export-ydpi="319.57474"
   xmlns:inkscape="http://www.inkscape.org/namespaces/inkscape"
   xmlns:sodipodi="http://sodipodi.sourceforge.net/DTD/sodipodi-0.dtd"
   xmlns="http://www.w3.org/2000/svg"
   xmlns:svg="http://www.w3.org/2000/svg">
  <sodipodi:namedview
     id="namedview248"
     pagecolor="#ffffff"
     bordercolor="#000000"
     borderopacity="0.25"
     inkscape:showpageshadow="2"
     inkscape:pageopacity="0.0"
     inkscape:pagecheckerboard="0"
     inkscape:deskcolor="#d1d1d1"
     showgrid="false"
     inkscape:zoom="13.693333"
     inkscape:cx="9.0555017"
     inkscape:cy="37.463487"
     inkscape:window-width="2560"
     inkscape:window-height="1387"
     inkscape:window-x="3832"
     inkscape:window-y="375"
     inkscape:window-maximized="1"
     inkscape:current-layer="svg246" />
  <path
     d="m 76.9022,37.4999 c 0,4.0503 -2.4787,7.6588 -3.6621,11.3091 -1.2284,3.7875 -1.3853,8.1562 -3.6778,11.3091 -2.3155,3.1844 -6.4338,4.6734 -9.6156,6.9907 -3.1505,2.2943 -5.8259,5.7676 -9.6094,6.998 -3.6517,1.1865 -7.8401,-0.0115 -11.8862,-0.0115 -4.0461,0 -8.2345,1.198 -11.8851,0.0115 -3.7845,-1.2304 -6.46,-4.7037 -9.6104,-6.998 C 13.7737,64.7915 9.65542,63.3025 7.33992,60.1181 5.04744,56.9662 4.89049,52.5975 3.66211,48.809 2.47663,45.1545 0,41.546 0,37.4999 0,33.4537 2.47873,29.8411 3.66211,26.1908 4.89049,22.4033 5.04744,18.0346 7.33992,14.8817 9.65542,11.6984 13.7737,10.2083 16.9556,7.89201 20.106,5.59773 22.7815,2.12332 26.566,0.893977 c 3.6506,-1.18641 7.839,0.010471 11.8851,0.010471 4.0461,0 8.2345,-1.196881 11.8851,-0.010471 3.7846,1.229343 6.46,4.703753 9.6105,6.998033 3.1818,2.31629 7.3001,3.80639 9.6156,6.98969 2.2925,3.1529 2.4494,7.5216 3.6778,11.3091 1.1834,3.6503 3.6621,7.2598 3.6621,11.3091 z"
     fill="#326ce5"
     id="path229"
     style="display:inline" />
  <path
     d="m 38.4491,4.81215 c -18.0385,0 -32.66187,14.63485 -32.66187,32.68755 0,18.0527 14.62337,32.6875 32.66187,32.6875 18.0385,0 32.6618,-14.6307 32.6618,-32.6875 0,-18.0569 -14.6233,-32.68755 -32.6618,-32.68755 z M 38.4407,67.3432 C 21.9675,67.3432 8.63217,53.9911 8.62903,37.5049 8.62903,21.0009 21.9989,7.63 38.4836,7.66142 54.9683,7.69283 68.2837,21.0439 68.2691,37.5279 68.2545,54.012 54.9139,67.3484 38.4407,67.3432 Z"
     fill="#ffffff"
     id="path231"
     style="display:inline" />
  <defs
     id="defs244">
    <clipPath
       id="clip0_0_218">
      <rect
         width="76.9022"
         height="74.2618"
         fill="white"
         transform="translate(0 0.369141)"
         id="rect241" />
    </clipPath>
  </defs>
  <path
     style="line-height:normal;text-indent:0;text-align:start;text-decoration-line:none;text-decoration-style:solid;text-decoration-color:#000000;text-transform:none;display:inline;isolation:auto;mix-blend-mode:normal;fill:#ffffff;fill-opacity:1;stroke-width:1.3521"
     d="m 49.316805,18.570595 c -2.167418,0 -4.202645,0.844809 -5.733222,2.376739 l -4.058946,4.056301 c -1.53328,1.531929 -2.376737,3.568447 -2.376737,5.735864 0,1.23041 0.282377,2.413542 0.797528,3.491165 L 40.052804,32.12329 C 39.933819,31.675745 39.8521,31.215438 39.8521,30.739499 c 0,-1.444042 0.563594,-2.800369 1.587134,-3.823909 l 4.05366,-4.056301 c 1.022188,-1.022188 2.379866,-1.584494 3.82391,-1.584494 1.444043,0 2.801721,0.562305 3.823908,1.584494 1.022188,1.022187 1.584494,2.379867 1.584494,3.823908 0,1.444044 -0.563594,2.80037 -1.587135,3.82391 l -4.05366,4.056301 c -1.354804,1.354805 -3.369667,1.790246 -5.173369,1.34946 l -2.141705,2.141705 c 1.077624,0.515151 2.260754,0.797527 3.491165,0.797527 2.167417,0 4.202645,-0.844805 5.733222,-2.376738 l 4.058943,-4.056302 c 1.533283,-1.531931 2.376739,-3.568445 2.376739,-5.735864 0,-2.167417 -0.843456,-4.203934 -2.376738,-5.735863 -1.531929,-1.533282 -3.568446,-2.376739 -5.735863,-2.376738 z m -4.082709,10.803599 c -0.351275,0.01042 -0.684674,0.157278 -0.92957,0.409328 L 30.78352,43.304526 c -1.327329,1.274366 0.637589,3.239284 1.911956,1.911955 L 46.21648,31.695475 c 0.884413,-0.859686 0.250468,-2.35764 -0.982384,-2.321281 z m -13.494597,6.773707 c -2.167417,0 -4.202644,0.84481 -5.733222,2.376738 l -4.058945,4.056301 c -1.533281,1.531933 -2.376738,3.568448 -2.376738,5.735864 0,2.167419 0.843457,4.203934 2.376738,5.735865 1.531931,1.533281 3.568448,2.376737 5.735865,2.376737 2.167417,0 4.202644,-0.844806 5.733222,-2.376737 l 4.058943,-4.056303 c 1.533282,-1.531929 2.376738,-3.568445 2.376738,-5.735864 0,-1.23041 -0.282378,-2.413539 -0.797527,-3.491165 l -2.107377,2.107374 c 0.118985,0.447547 0.200704,0.907854 0.200704,1.383791 0,1.444044 -0.563594,2.800371 -1.587133,3.82391 l -4.053662,4.056301 c -2.044375,2.044375 -5.604793,2.044375 -7.647818,0 -1.022187,-1.022189 -1.584492,-2.379866 -1.584492,-3.82391 0,-1.444042 0.563593,-2.800369 1.587133,-3.823908 l 4.05366,-4.056301 c 1.022189,-1.022189 2.379866,-1.584494 3.82391,-1.584494 0.475939,0 0.936244,0.08172 1.383791,0.200704 l 2.107374,-2.107377 c -1.077624,-0.515149 -2.260754,-0.797526 -3.491164,-0.797526 z"
     id="path1111"
     sodipodi:nodetypes="sccsccsccsssccccsccscsccccccsccscsccsccscccsccsccs" />
  <path
     d="m 49.695539,19.080366 c -1.852496,-0.0058 -3.708195,0.689198 -5.124473,2.086213 l -5.060128,5.056856 c -2.130698,2.130699 -2.655651,5.26626 -1.578019,7.894455 l 0.873527,-0.872436 c -0.682873,-2.125114 -0.185785,-4.5521 1.506043,-6.24337 l 5.044861,-5.042679 c 1.192096,-1.175904 2.753582,-1.763411 4.314196,-1.763411 1.574015,0 3.146599,0.597993 4.34037,1.791765 2.376935,2.376934 2.390185,6.258672 0.02943,8.653473 l -5.054662,5.057949 c -1.68401,1.683452 -4.107908,2.177477 -6.232464,1.494046 l -0.872436,0.873526 c 0.882766,0.361816 1.821542,0.544182 2.761261,0.544182 1.858776,0 3.71831,-0.707319 5.133192,-2.1222 l 5.059037,-5.06231 c 2.791795,-2.830322 2.776412,-7.418558 -0.03384,-10.22822 -1.404547,-1.405111 -3.25343,-2.112046 -5.105925,-2.117839 z m -7.295748,13.944797 c -0.145061,0.0043 -0.28274,0.06495 -0.383871,0.169036 l -7.817027,7.817026 c -0.54813,0.526258 0.263297,1.337684 0.789555,0.789554 l 7.817026,-7.817026 c 0.365224,-0.355013 0.103432,-0.973604 -0.405683,-0.95859 z m -10.042828,3.364332 c -1.858777,0 -3.717223,0.707319 -5.132105,2.1222 l -5.060128,5.06231 c -2.791795,2.830322 -2.776414,7.418559 0.03381,10.228221 2.809104,2.810221 7.397846,2.825655 10.230402,0.03163 L 37.489071,48.777 c 2.130698,-2.130698 2.655651,-5.26626 1.578018,-7.894455 l -0.873526,0.873526 c 0.682873,2.125115 0.185785,4.55101 -1.506043,6.24228 l -5.044861,5.04268 c -1.192097,1.175903 -2.752492,1.76341 -4.313106,1.76341 -1.574014,0 -3.147687,-0.597994 -4.341459,-1.791766 -2.377492,-2.377492 -2.390745,-6.258672 -0.02944,-8.653474 l 5.054676,-5.057947 c 1.684005,-1.683452 4.107903,-2.177477 6.232459,-1.494045 l 0.873526,-0.873527 C 34.23655,36.571865 33.296683,36.3895 32.356965,36.3895 Z"
     id="path1624"
     sodipodi:nodetypes="sccccccssccccscccsccccccscccccccccssccccs"
     style="display:inline;fill:#ffffff;fill-opacity:1;stroke-width:0.558359" />
</svg>
